<?xml version="1.0" standalone="no"?>
<!DOCTYPE svg PUBLIC "-//W3C//DTD SVG 20010904//EN"
 "http://www.w3.org/TR/2001/REC-SVG-20010904/DTD/svg10.dtd">
<svg version="1.0" xmlns="http://www.w3.org/2000/svg"
 width="50.000000pt" height="50.000000pt" viewBox="0 0 50.000000 50.000000"
 preserveAspectRatio="xMidYMid meet">

<g transform="translate(0.000000,50.000000) scale(0.100000,-0.100000)"
fill="#000000" stroke="none">
<path d="M0 250 l0 -250 250 0 250 0 0 250 0 250 -250 0 -250 0 0 -250z m113
225 c45 -19 74 -19 110 -1 23 13 31 13 55 0 35 -18 64 -18 109 1 34 15 38 14
56 -3 16 -16 17 -23 7 -42 -7 -13 -10 -40 -6 -69 18 -141 18 -175 -4 -209 -11
-18 -34 -41 -51 -50 -17 -9 -55 -31 -85 -49 l-54 -32 -54 32 c-30 18 -68 40
-85 49 -17 9 -40 32 -51 50 -22 34 -22 68 -4 209 3 28 1 56 -6 69 -9 18 -8 25
6 41 20 23 14 22 57 4z"/>
</g>
</svg>
